<svg width="41" height="43" viewBox="0 0 41 43" fill="none" xmlns="http://www.w3.org/2000/svg">
<path d="M39.7188 18.875L34.625 6.375H37.75V3.25H22.125V0.125H19V3.25H3.375V6.375H6.5L1.4375 18.875H0.25V22H0.71875C1.20625 23.5562 2.19687 24.9062 3.53125 25.8437C4.8489 26.7992 6.43487 27.3138 8.0625 27.3138C9.69013 27.3138 11.2761 26.7992 12.5937 25.8437C13.9293 24.9005 14.9262 23.553 15.4375 22H15.875V18.875H14.4688L9.25 6.375H19V31.375H12.75L11.5312 31.9375L5.28125 39.7812L6.5 42.3125H34.625L35.8438 39.7812L29.5938 31.9375L28.375 31.375H22.125V6.375H31.9062L26.6875 18.875H25.25V22H25.7187C26.2298 23.5483 27.2162 24.8959 28.5375 25.8511C29.8588 26.8064 31.4477 27.3206 33.0781 27.3206C34.7086 27.3206 36.2975 26.8064 37.6187 25.8511C38.94 24.8959 39.9264 23.5483 40.4375 22H40.875V18.875H39.7188ZM10.3125 23.5938C9.62433 23.9776 8.85048 24.1819 8.0625 24.1875C7.2842 24.1834 6.52007 23.9789 5.84375 23.5938C5.15653 23.2124 4.57624 22.6643 4.15625 22H11.9688C11.5575 22.6605 10.9883 23.2082 10.3125 23.5938ZM11.0937 18.875H4.84375L7.96875 11.375L11.0937 18.875ZM27.625 34.5L31.5 39.1875H9.625L13.5 34.5H27.625ZM33.1875 11.4375L36.3125 18.9375H30.0625L33.1875 11.4375ZM35.3125 23.6562C34.6299 24.0537 33.8523 24.2588 33.0625 24.25C32.2822 24.2611 31.5142 24.0556 30.8438 23.6562C30.1531 23.252 29.5733 22.683 29.1562 22H36.9688C36.5814 22.6953 36.0078 23.2689 35.3125 23.6562Z" fill="white"/>
</svg>
