<?xml version="1.0" encoding="UTF-8"?>
<svg xmlns="http://www.w3.org/2000/svg" version="1.1" viewBox="0 0 21 54">
  <defs>
    <style>
      .cls-1 {
        fill: #6c1bb8;
      }
    </style>
  </defs>
  <!-- Generator: Adobe Illustrator 28.6.0, SVG Export Plug-In . SVG Version: 1.2.0 Build 709)  -->
  <g>
    <g id="_圖層_1" data-name="圖層_1">
      <path class="cls-1" d="M19.8,25.3L.6.9c0,0-.1-.1-.2-.1,0,0-.1,0-.2,0,0,0-.1.1-.1.2,0,0,0,.2,0,.3v5.3c0,.3,0,.7.3.9l15.3,19.5L.4,46.5c-.2.2-.3.5-.3.9v5.3c0,.5.3.7.5.4l19.1-24.4c.2-.2.3-.5.4-.8,0-.3.1-.6.1-1s0-.7-.1-1c0-.3-.2-.6-.4-.8Z"/>
    </g>
  </g>
</svg>