<?xml version="1.0" encoding="UTF-8"?>
<svg xmlns="http://www.w3.org/2000/svg" version="1.1" viewBox="0 0 800 800">
  <defs>
    <style>
      .cls-1 {
        fill: #fff;
      }
    </style>
  </defs>
  <!-- Generator: Adobe Illustrator 28.6.0, SVG Export Plug-In . SVG Version: 1.2.0 Build 709)  -->
  <g>
    <g id="_圖層_1" data-name="圖層_1">
      <path class="cls-1" d="M271.5,210.2c14.5-7.7,30-10.2,45.2-10.2,17.5,0,37.9,5.8,54.4,19.3,17.2,14.1,28.9,35.8,28.9,64.1s-23,50.1-35.9,60.1c-1,.8-2,1.5-2.8,2.2-14.2,11.1-19.6,17.1-19.6,29.4s-11.2,25-25,25-25-11.2-25-25c0-37.8,23.7-56.9,38.7-68.7,17.1-13.4,19.6-16.4,19.6-22.9,0-13.2-5-20.7-10.6-25.4-6.5-5.3-15.2-7.9-22.7-7.9-9.8,0-16.6,1.6-21.6,4.3-4.8,2.6-9.8,7-14.7,16-6.6,12.1-21.8,16.6-33.9,10.1-12.1-6.6-16.6-21.8-10.1-33.9,8.8-16.2,20.4-28.4,35.1-36.3Z"/>
      <path class="cls-1" d="M316.7,500c18.4,0,33.3-14.9,33.3-33.3s-14.9-33.3-33.3-33.3-33.3,14.9-33.3,33.3,14.9,33.3,33.3,33.3Z"/>
      <path class="cls-1" d="M316.7,100c-138.1,0-250,111.9-250,250s8.4,73.6,23.4,105.8c-8.5,33.3-17.9,70.4-24.1,94.7-7.8,30.4,19.6,58.1,50.1,50.8,25-6,63.4-15.2,97.7-23.4,31.4,14.2,66.3,22.1,102.9,22.1,138.1,0,250-111.9,250-250s-111.9-250-250-250ZM116.7,350c0-110.5,89.5-200,200-200s200,89.5,200,200-89.5,200-200,200-62.2-7.5-89-20.8l-8.1-4-8.8,2.1c-30.8,7.3-66.3,15.8-92.9,22.2,6.6-26,15.4-60.4,23-90.3l2.3-9.2-4.4-8.4c-14.1-27.4-22.1-58.5-22.1-91.6Z"/>
      <path class="cls-1" d="M483.3,700c-65.6,0-125.4-25.3-170-66.7,1.1,0,2.2,0,3.3,0,23.9,0,47.2-3,69.4-8.6,28.8,16.1,62,25.2,97.3,25.2s62.2-7.5,89-20.8l8.1-4,8.8,2.1c30.7,7.3,65.5,14.9,91.3,20.3-5.8-25-13.8-58.5-21.4-88.4l-2.3-9.2,4.4-8.4c14.1-27.4,22.1-58.5,22.1-91.6,0-70.5-36.5-132.5-91.6-168.1-5.9-24.1-15-47-26.7-68.2,97.9,33.9,168.2,126.9,168.2,236.3s-8.4,73.6-23.4,105.8c8.4,33.6,17,70,22.4,93.4,6.8,29.5-19.2,56.2-48.9,50-24.2-5.1-62.3-13.2-97.1-21.3-31.4,14.2-66.3,22.1-102.9,22.1Z"/>
    </g>
  </g>
</svg>