<?xml version="1.0" encoding="UTF-8"?>
<svg xmlns="http://www.w3.org/2000/svg" version="1.1" viewBox="0 0 800 800">
  <defs>
    <style>
      .cls-1 {
        fill: #fff;
      }
    </style>
  </defs>
  <!-- Generator: Adobe Illustrator 28.6.0, SVG Export Plug-In . SVG Version: 1.2.0 Build 709)  -->
  <g>
    <g id="_圖層_1" data-name="圖層_1">
      <g id="_xD83D__xDD0D_-System-Icons">
        <g id="ic_fluent_book_formula_lookup_24_regular">
          <path id="_xD83C__xDFA8_-Color" class="cls-1" d="M600,66.7c46,0,83.3,37.3,83.3,83.3h0v475c0,13.8-11.2,25-25,25H183.3c0,18.4,14.9,33.3,33.3,33.3h441.7c13.8,0,25,11.2,25,25s-11.2,25-25,25H216.7c-46,0-83.3-37.3-83.3-83.3h0V150c0-46,37.3-83.3,83.3-83.3h383.3ZM600,116.7H216.7c-18.4,0-33.3,14.9-33.3,33.3h0v450h450V150c0-18.4-14.9-33.3-33.3-33.3h0ZM390.8,200c68.6,0,124.1,55.6,124.1,124.1s-7.7,49.3-21,69h0l82.3,82.3c9.4,9.4,9.4,24.7,0,34.1-8.6,8.6-22,9.3-31.4,2.3h0l-.2-.2-2.2-1.9-82.5-82.5c-19.7,13.2-43.5,21-69,21-68.6,0-124.1-55.6-124.1-124.1s55.6-124.1,124.1-124.1ZM390.8,248.2c-41.9,0-75.9,34-75.9,75.9s34,75.9,75.9,75.9,75.9-34,75.9-75.9-34-75.9-75.9-75.9Z"/>
        </g>
      </g>
    </g>
  </g>
</svg>