<?xml version="1.0" encoding="UTF-8"?>
<svg xmlns="http://www.w3.org/2000/svg" version="1.1" viewBox="0 0 800 800">
  <defs>
    <style>
      .cls-1 {
        fill: #fff;
      }
    </style>
  </defs>
  <!-- Generator: Adobe Illustrator 28.6.0, SVG Export Plug-In . SVG Version: 1.2.0 Build 709)  -->
  <g>
    <g id="_圖層_1" data-name="圖層_1">
      <g id="_xD83D__xDD0D_-Product-Icons">
        <g id="ic_fluent_grid_28_regular">
          <path id="_xD83C__xDFA8_-Color" class="cls-1" d="M307.1,428.6c35.5,0,64.3,28.8,64.3,64.3v157.1c0,35.5-28.8,64.3-64.3,64.3h-157.1c-35.5,0-64.3-28.8-64.3-64.3v-157.1c0-35.5,28.8-64.3,64.3-64.3h157.1ZM650,428.6c35.5,0,64.3,28.8,64.3,64.3v157.1c0,35.5-28.8,64.3-64.3,64.3h-157.1c-35.5,0-64.3-28.8-64.3-64.3v-157.1c0-35.5,28.8-64.3,64.3-64.3h157.1ZM307.1,471.4h-157.1c-11.8,0-21.4,9.6-21.4,21.4v157.1c0,11.8,9.6,21.4,21.4,21.4h157.1c11.8,0,21.4-9.6,21.4-21.4v-157.1c0-11.8-9.6-21.4-21.4-21.4ZM650,471.4h-157.1c-11.8,0-21.4,9.6-21.4,21.4v157.1c0,11.8,9.6,21.4,21.4,21.4h157.1c11.8,0,21.4-9.6,21.4-21.4v-157.1c0-11.8-9.6-21.4-21.4-21.4ZM307.1,85.7c35.5,0,64.3,28.8,64.3,64.3v157.1c0,35.5-28.8,64.3-64.3,64.3h-157.1c-35.5,0-64.3-28.8-64.3-64.3v-157.1c0-35.5,28.8-64.3,64.3-64.3h157.1ZM650,85.7c35.5,0,64.3,28.8,64.3,64.3v157.1c0,35.5-28.8,64.3-64.3,64.3h-157.1c-35.5,0-64.3-28.8-64.3-64.3v-157.1c0-35.5,28.8-64.3,64.3-64.3h157.1ZM307.1,128.6h-157.1c-11.8,0-21.4,9.6-21.4,21.4v157.1c0,11.8,9.6,21.4,21.4,21.4h157.1c11.8,0,21.4-9.6,21.4-21.4v-157.1c0-11.8-9.6-21.4-21.4-21.4ZM650,128.6h-157.1c-11.8,0-21.4,9.6-21.4,21.4v157.1c0,11.8,9.6,21.4,21.4,21.4h157.1c11.8,0,21.4-9.6,21.4-21.4v-157.1c0-11.8-9.6-21.4-21.4-21.4Z"/>
        </g>
      </g>
    </g>
  </g>
</svg>