<?xml version="1.0" encoding="UTF-8"?>
<svg xmlns="http://www.w3.org/2000/svg" version="1.1" viewBox="0 0 800 800">
  <defs>
    <style>
      .cls-1 {
        fill: #fff;
      }
    </style>
  </defs>
  <!-- Generator: Adobe Illustrator 28.6.0, SVG Export Plug-In . SVG Version: 1.2.0 Build 709)  -->
  <g>
    <g id="_圖層_1" data-name="圖層_1">
      <g id="_16._Money_Bag">
        <path class="cls-1" d="M721,604.5c-27-121.6-92.2-231.5-186-313.5,36.3-19.9,49.7-65.4,29.8-101.8-11.3-20.6-31.6-34.8-54.8-38.2l40-118c2.5-7.6,1.2-16-3.5-22.5C541.6,3.6,533.5-.4,525,0h-250c-8,0-15.6,3.9-20.3,10.5-4.7,6.5-6,14.9-3.5,22.5l39.5,117c-41,6.1-69.3,44.2-63.2,85.2,3.4,23.3,17.6,43.6,38.2,54.8-94.4,82.3-160,192.7-187,315-2.5,11.4-3.7,23.1-3.8,34.7,0,88.5,71.7,160.2,160.2,160.2h329.5c88.5,0,160.2-71.7,160.2-160.2h0c0-11.9-1.3-23.7-4-35.2ZM490.3,50l-33.2,100h-114l-33.2-100h180.5ZM300,200h200c13.8,0,25,11.2,25,25s-11.2,25-25,25h-200c-13.8,0-25-11.2-25-25s11.2-25,25-25ZM564.8,750H235.2c-60.8-.1-110.1-49.4-110.2-110.2,0-8.4,1-16.8,2.8-25,28.2-126.2,101.1-238,205.2-314.8h134c104.4,77.1,177.4,189.3,205.5,316,1.6,7.8,2.4,15.8,2.5,23.8-.1,60.8-49.4,110.1-110.2,110.2Z"/>
        <path class="cls-1" d="M400,450h50c13.8,0,25-11.2,25-25s-11.2-25-25-25h-25c0-13.8-11.2-25-25-25s-25,11.2-25,25v4.5c-38.9,14.1-59,57.1-44.9,96.1,10.7,29.5,38.6,49.2,69.9,49.4,13.8,0,25,11.2,25,25s-11.2,25-25,25h-50c-13.8,0-25,11.2-25,25s11.2,25,25,25h25c0,13.8,11.2,25,25,25s25-11.2,25-25v-4.5c38.9-14.1,59-57.1,44.9-96.1-10.7-29.5-38.6-49.2-69.9-49.4-13.8,0-25-11.2-25-25s11.2-25,25-25Z"/>
      </g>
    </g>
  </g>
</svg>