<?xml version="1.0" encoding="UTF-8"?>
<svg xmlns="http://www.w3.org/2000/svg" version="1.1" viewBox="0 0 57.5 57.5">
  <defs>
    <style>
      .cls-1 {
        fill: #fff;
      }

      .cls-2 {
        fill: #0253a1;
      }
    </style>
  </defs>
  <!-- Generator: Adobe Illustrator 28.6.0, SVG Export Plug-In . SVG Version: 1.2.0 Build 709)  -->
  <g>
    <g id="Layer_1">
      <circle class="cls-2" cx="28.7" cy="28.7" r="28.7"/>
      <path class="cls-1" d="M32.9,10.4c-1.8,0-3.5.5-4.9,1.5-1.7,1.2-2.6,2.9-3,4.9-.1.8-.2,1.7-.2,2.5,0,1.3,0,2.6,0,4v.5h-5.7v6.6h5.6v16.6h6.9v-16.5h5.6c.3-2.2.6-4.4.9-6.6h-1.3c-1.6,0-5.2,0-5.2,0,0,0,0-3.3,0-4.7,0-1.9,1.2-2.5,2.8-2.6,1.1,0,2.3,0,3.4,0h.5v-5.9c-.6,0-1.2-.1-1.9-.2-1.2,0-2.3-.1-3.5,0Z"/>
    </g>
  </g>
</svg>