<?xml version="1.0" encoding="UTF-8"?>
<svg xmlns="http://www.w3.org/2000/svg" version="1.1" viewBox="0 0 42.4 42.4">
  <defs>
    <style>
      .cls-1 {
        fill: #fff;
        fill-rule: evenodd;
      }
    </style>
  </defs>
  <!-- Generator: Adobe Illustrator 28.6.0, SVG Export Plug-In . SVG Version: 1.2.0 Build 709)  -->
  <g>
    <g id="Layer_1">
      <circle cx="21.2" cy="21.2" r="21.2"/>
      <path class="cls-1" d="M33.1,14.2c-.1,0-.2.1-.2.1-3.8,3-7.6,6.1-11.4,9.2-.1,0-.2.1-.3.2-.1.2-.3.2-.5,0-.1-.2-.2-.2-.3-.3-3.6-2.9-7.2-6-10.8-8.8,0,0-.2-.1-.3-.2,0,.1,0,.2,0,.2,0,3.9,0,9.8,0,13.7,0,1.5.9,2.6,2.2,2.6,6.5,0,12.9,0,19.4,0,.3,0,.6,0,.9-.2.8-.4,1.3-1.3,1.3-2.5,0-4,0-9.7,0-13.7v-.4ZM9.6,12.8c3.8,3.1,7.6,6.1,11.4,9.2,3.9-3.1,7.8-6.2,11.7-9.4-.1-.2-.3-.4-.4-.5-.4-.4-.9-.6-1.5-.6-5.9,0-11.9,0-17.8,0s-1.2,0-1.8,0c-.7,0-1.3.5-1.7,1.2Z"/>
    </g>
  </g>
</svg>