<?xml version="1.0" encoding="UTF-8"?>
<svg id="Layer_1" xmlns="http://www.w3.org/2000/svg" viewBox="0 0 26.95 26.95">
  <circle cx="13.47" cy="13.47" r="13.47" style="fill: red;"/>
  <path d="M21.83,9.32c-.2-.74-.79-1.33-1.54-1.53-1.36-.35-6.82-.35-6.82-.35,0,0-5.36-.02-6.72.33-.75.2-1.47.81-1.67,1.55-.37,1.35-.33,4.16-.33,4.16,0,0-.03,2.81.33,4.16.2.74.93,1.35,1.67,1.55,1.36.37,6.72.33,6.72.33,0,0,5.36.02,6.72-.33.75-.2,1.45-.81,1.65-1.55.37-1.34.37-4.16.37-4.16,0,0-.01-2.81-.38-4.16Z" style="fill: #fff;"/>
  <polygon points="11.79 16.16 16.15 13.47 11.79 10.79 11.79 16.16" style="fill: red;"/>
</svg>