<?xml version="1.0" encoding="UTF-8"?>
<svg xmlns="http://www.w3.org/2000/svg" version="1.1" viewBox="0 0 26.9 26.9">
  <defs>
    <style>
      .cls-1 {
        fill: #fff;
        fill-rule: evenodd;
      }

      .cls-2 {
        fill: #ff9d27;
      }
    </style>
  </defs>
  <!-- Generator: Adobe Illustrator 28.6.0, SVG Export Plug-In . SVG Version: 1.2.0 Build 709)  -->
  <g>
    <g id="Layer_1">
      <circle class="cls-2" cx="13.5" cy="13.5" r="13.5"/>
      <path class="cls-1" d="M9.7,16c-1,0-1.9.8-1.9,1.9s.8,1.9,1.9,1.9,1.9-.8,1.9-1.9-.8-1.9-1.9-1.9h0ZM9.1,6.6h0c0,0,.2,0,.3,0,.2,0,.3,0,.3,0,3.1,0,6,1.3,8,3.3,2,2,3.3,4.9,3.3,8s0,.1,0,.3c0,.1,0,.2,0,.3h0c0,.7-.6,1.2-1.2,1.2s-1.2-.6-1.2-1.2,0-.1,0-.2c0,0,0-.1,0-.2v-.3c0-2.4-1-4.7-2.6-6.3-1.6-1.6-3.8-2.6-6.3-2.6s-.3,0-.3,0c0,0-.1,0-.2,0,0,0-.1,0-.2,0-.7,0-1.2-.6-1.2-1.2s.6-1.2,1.2-1.2h0ZM9.1,11.3c0,0,.2,0,.3,0,.2,0,.3,0,.4,0,1.8,0,3.5.7,4.7,1.9,1.2,1.2,1.9,2.8,1.9,4.7s0,.2,0,.4c0,.1,0,.2,0,.3,0,.6-.6,1.2-1.2,1.2s-1.2-.6-1.2-1.2,0-.1,0-.2c0,0,0-.1,0-.2,0,0,0-.1,0-.2,0-1.1-.5-2.2-1.2-2.9-.7-.7-1.8-1.2-2.9-1.2s-.2,0-.2,0c0,0-.1,0-.2,0,0,0-.1,0-.2,0-.7,0-1.2-.6-1.2-1.2s.5-1.2,1.2-1.2Z"/>
    </g>
  </g>
</svg>