<svg width="48" height="51" viewBox="0 0 48 51" fill="none" xmlns="http://www.w3.org/2000/svg">
<path d="M33.7083 14.9847C33.5062 14.9838 33.3062 14.9429 33.12 14.8642C32.9338 14.7855 32.7651 14.6707 32.6236 14.5263L21.2722 3.17495C20.9865 2.88321 20.8285 2.48994 20.8328 2.08166C20.8371 1.67338 21.0034 1.28353 21.2951 0.997865C21.5868 0.712205 21.9801 0.554137 22.3884 0.558435C22.7967 0.562733 23.1865 0.729044 23.4722 1.02078L34.8389 12.3722C35.1234 12.6584 35.2831 13.0456 35.2831 13.4493C35.2831 13.8529 35.1234 14.2401 34.8389 14.5263C34.692 14.6763 34.5158 14.7944 34.3213 14.8732C34.1268 14.9521 33.9181 14.99 33.7083 14.9847ZM13.8319 34.8458C13.4311 34.8441 13.047 34.685 12.7625 34.4027L1.3958 23.0513C1.25336 22.9059 1.14095 22.7338 1.06501 22.5449C0.989072 22.356 0.951082 22.154 0.95321 21.9504C0.957507 21.5393 1.12496 21.1467 1.41872 20.859C1.71248 20.5713 2.1085 20.4121 2.51965 20.4164C2.72323 20.4185 2.92439 20.4607 3.11166 20.5406C3.29893 20.6205 3.46863 20.7364 3.61108 20.8819L14.9625 32.2333C15.1779 32.447 15.3249 32.72 15.3846 33.0175C15.4443 33.3151 15.414 33.6236 15.2976 33.9039C15.1813 34.1841 14.9841 34.4234 14.7312 34.5912C14.4783 34.7589 14.1812 34.8475 13.8777 34.8458H13.8319ZM29.0333 45.8611L29.7972 48.5652C29.8508 48.7654 29.8579 48.9753 29.8179 49.1787C29.778 49.382 29.6921 49.5736 29.5668 49.7387C29.4415 49.9038 29.2801 50.0381 29.095 50.1313C28.9098 50.2244 28.7058 50.2741 28.4986 50.2763H3.10692C2.89966 50.2741 2.69567 50.2244 2.51053 50.1313C2.32539 50.0381 2.164 49.9038 2.0387 49.7387C1.9134 49.5736 1.8275 49.382 1.78757 49.1787C1.74763 48.9753 1.75473 48.7654 1.8083 48.5652L2.58747 45.8611C2.73068 45.3788 3.02764 44.9565 3.43309 44.6586C3.83854 44.3607 4.33025 44.2036 4.8333 44.2111H26.7722C27.2767 44.2052 27.7695 44.3628 28.177 44.6602C28.5846 44.9576 28.8849 45.3789 29.0333 45.8611ZM46.6791 41.3999L25.6569 20.5916L30.2402 16.0083L19.6833 5.37495L6.02497 19.0333L16.6125 29.6361L21.5166 24.7472L42.5083 45.525C42.7804 45.7985 43.1043 46.015 43.461 46.1619C43.8178 46.3088 44.2003 46.3831 44.5861 46.3805C45.1656 46.3863 45.7336 46.2193 46.2179 45.901C46.7022 45.5827 47.0807 45.1274 47.3052 44.5931C47.5297 44.0589 47.5901 43.4699 47.4786 42.9012C47.3671 42.3325 47.0888 41.8099 46.6791 41.3999Z" fill="white"/>
</svg>
