<?xml version="1.0" encoding="UTF-8"?>
<svg id="Layer_1" xmlns="http://www.w3.org/2000/svg" xmlns:xlink="http://www.w3.org/1999/xlink" viewBox="0 0 40.56 40.63">
  <defs>
    <linearGradient id="_未命名漸層_2" data-name="未命名漸層 2" x1="0" y1="20.32" x2="40.56" y2="20.32" gradientUnits="userSpaceOnUse">
      <stop offset="0" stop-color="#575858"/>
      <stop offset="1" stop-color="#000"/>
    </linearGradient>
  </defs>
  <path d="M39.64,35.63l-6.78-6.78c-.91-.92-2.24-1.14-3.31-.69l-1.1-1.1c5.67-6.39,5.47-16.17-.66-22.3C24.62,1.59,20.45,0,16.28,0S7.95,1.59,4.77,4.77c-6.36,6.36-6.36,16.67,0,23.03,3.18,3.18,7.35,4.77,11.51,4.77,3.83,0,7.65-1.36,10.71-4.04l1.1,1.1c-.46,1.08-.23,2.4.69,3.31l6.78,6.78c1.18,1.18,3.06,1.23,4.18.11,1.13-1.13,1.08-3-.11-4.19ZM16.28,28.57c-3.28,0-6.37-1.28-8.69-3.6-4.79-4.79-4.79-12.58,0-17.37,2.32-2.32,5.41-3.6,8.69-3.6s6.37,1.28,8.68,3.6c4.79,4.79,4.79,12.58,0,17.37-2.32,2.32-5.4,3.6-8.68,3.6Z" style="fill: url(#_未命名漸層_2); fill-rule: evenodd;"/>
</svg>