<svg width="50" height="50" viewBox="0 0 50 50" fill="none" xmlns="http://www.w3.org/2000/svg">
<g clip-path="url(#clip0_260_967)">
<path fill-rule="evenodd" clip-rule="evenodd" d="M0 17.5C0 16.1739 0.526784 14.9021 1.46447 13.9645C2.40215 13.0268 3.67392 12.5 5 12.5H45C46.3261 12.5 47.5979 13.0268 48.5355 13.9645C49.4732 14.9021 50 16.1739 50 17.5V45C50 46.3261 49.4732 47.5979 48.5355 48.5355C47.5979 49.4732 46.3261 50 45 50H5C3.67392 50 2.40215 49.4732 1.46447 48.5355C0.526784 47.5979 0 46.3261 0 45V17.5ZM45 17.5H5V45H45V17.5Z" fill="white"/>
<path fill-rule="evenodd" clip-rule="evenodd" d="M14.3745 23.75C14.3745 23.2527 14.5721 22.7758 14.9237 22.4242C15.2753 22.0725 15.7522 21.875 16.2495 21.875H33.7495C34.2468 21.875 34.7237 22.0725 35.0754 22.4242C35.427 22.7758 35.6245 23.2527 35.6245 23.75C35.6245 24.2473 35.427 24.7242 35.0754 25.0758C34.7237 25.4274 34.2468 25.625 33.7495 25.625H16.2495C15.7522 25.625 15.2753 25.4274 14.9237 25.0758C14.5721 24.7242 14.3745 24.2473 14.3745 23.75ZM11.8745 31.25C11.8745 30.7527 12.0721 30.2758 12.4237 29.9242C12.7753 29.5725 13.2522 29.375 13.7495 29.375H36.2495C36.7468 29.375 37.2237 29.5725 37.5754 29.9242C37.927 30.2758 38.1245 30.7527 38.1245 31.25C38.1245 31.7473 37.927 32.2242 37.5754 32.5758C37.2237 32.9274 36.7468 33.125 36.2495 33.125H13.7495C13.2522 33.125 12.7753 32.9274 12.4237 32.5758C12.0721 32.2242 11.8745 31.7473 11.8745 31.25ZM14.3745 38.75C14.3745 38.2527 14.5721 37.7758 14.9237 37.4242C15.2753 37.0725 15.7522 36.875 16.2495 36.875H33.7495C34.2468 36.875 34.7237 37.0725 35.0754 37.4242C35.427 37.7758 35.6245 38.2527 35.6245 38.75C35.6245 39.2473 35.427 39.7242 35.0754 40.0758C34.7237 40.4274 34.2468 40.625 33.7495 40.625H16.2495C15.7522 40.625 15.2753 40.4274 14.9237 40.0758C14.5721 39.7242 14.3745 39.2473 14.3745 38.75ZM28.5345 7.06998C27.5969 6.13263 26.3254 5.60605 24.9995 5.60605C23.6737 5.60605 22.4022 6.13263 21.4645 7.06998L11.767 16.77C11.5348 17.0021 11.259 17.1862 10.9556 17.3117C10.6522 17.4373 10.327 17.5019 9.99865 17.5017C9.67028 17.5016 9.34514 17.4368 9.04181 17.3111C8.73848 17.1853 8.46289 17.001 8.23078 16.7687C7.99867 16.5365 7.81458 16.2607 7.68903 15.9573C7.56347 15.6539 7.49891 15.3287 7.49902 15.0003C7.49914 14.672 7.56393 14.3468 7.6897 14.0435C7.81547 13.7402 7.99975 13.4646 8.23203 13.2325L17.9295 3.53498C19.8048 1.66027 22.3479 0.607117 24.9995 0.607117C27.6512 0.607117 30.1943 1.66027 32.0695 3.53498L41.7695 13.2325C42.2383 13.7016 42.5015 14.3377 42.5013 15.0009C42.5011 15.664 42.2374 16.3 41.7683 16.7687C41.2992 17.2375 40.6631 17.5007 39.9999 17.5005C39.3367 17.5003 38.7008 17.2366 38.232 16.7675L28.5345 7.06998Z" fill="white"/>
</g>
<defs>
<clipPath id="clip0_260_967">
<rect width="50" height="50" fill="white"/>
</clipPath>
</defs>
</svg>
