<?xml version="1.0" encoding="UTF-8"?>
<svg xmlns="http://www.w3.org/2000/svg" version="1.1" viewBox="0 0 800 800">
  <defs>
    <style>
      .cls-1 {
        fill: #fff;
      }
    </style>
  </defs>
  <!-- Generator: Adobe Illustrator 28.6.0, SVG Export Plug-In . SVG Version: 1.2.0 Build 709)  -->
  <g>
    <g id="_圖層_1" data-name="圖層_1">
      <g id="_xD83D__xDD0D_-Product-Icons">
        <g id="ic_fluent_people_community_28_regular">
          <path id="_xD83C__xDFA8_-Color" class="cls-1" d="M492.9,514.3c35.5,0,64.3,28.8,64.3,64.3v42.9l-.2,3.1c-8.9,60.7-63.4,90-155,90s-146.7-28.9-158.6-88.9l-.4-4.2v-42.9c0-35.5,28.8-64.3,64.3-64.3h185.7ZM492.9,557.1h-185.7c-11.8,0-21.4,9.6-21.4,21.4v40.6c8,34.3,44.3,52.5,116.2,52.5s106.6-18,112.4-51.9v-41.2c0-11.8-9.6-21.4-21.4-21.4ZM521.2,342.8h157.3c35.5,0,64.3,28.8,64.3,64.3v42.9l-.2,3.1c-8.9,60.7-63.4,90-155,90h-9c-8.4-20.5-23.9-37.2-43.4-47.2,14.7,2.9,32.1,4.3,52.4,4.3,71.9,0,106.6-18,112.4-51.9v-41.2c0-11.8-9.6-21.4-21.4-21.4h-150c0-15-2.6-29.5-7.3-42.9ZM121.4,342.9h157.3c-4,11.1-6.4,23-7.1,35.4l-.2,7.5H121.4c-11.8,0-21.4,9.6-21.4,21.4v40.6c8,34.3,44.3,52.5,116.2,52.5s33.3-1.1,46.6-3.3c-18.6,10.1-33.3,26.4-41.5,46.1h-5.1c-91.2,0-146.7-28.8-158.6-88.9l-.4-4.2v-42.9c0-35.5,28.8-64.3,64.3-64.3ZM400,285.7c55.2,0,100,44.8,100,100s-44.8,100-100,100-100-44.8-100-100,44.8-100,100-100ZM400,328.6c-31.6,0-57.1,25.6-57.1,57.1s25.6,57.1,57.1,57.1,57.1-25.6,57.1-57.1-25.6-57.1-57.1-57.1ZM585.7,114.3c55.2,0,100,44.8,100,100s-44.8,100-100,100-100-44.8-100-100,44.8-100,100-100ZM214.3,114.3c55.2,0,100,44.8,100,100s-44.8,100-100,100-100-44.8-100-100,44.8-100,100-100ZM585.7,157.1c-31.6,0-57.1,25.6-57.1,57.1s25.6,57.1,57.1,57.1,57.1-25.6,57.1-57.1-25.6-57.1-57.1-57.1ZM214.3,157.1c-31.6,0-57.1,25.6-57.1,57.1s25.6,57.1,57.1,57.1,57.1-25.6,57.1-57.1-25.6-57.1-57.1-57.1Z"/>
        </g>
      </g>
    </g>
  </g>
</svg>