<svg width="21" height="54" viewBox="0 0 21 54" fill="none" xmlns="http://www.w3.org/2000/svg">
<path d="M19.7596 25.2579L0.640852 0.893809C0.590894 0.829637 0.530855 0.789757 0.467632 0.778749C0.404408 0.767741 0.340564 0.78605 0.283431 0.831574C0.226298 0.877099 0.178194 0.947993 0.144642 1.03611C0.11109 1.12423 0.0934522 1.22601 0.0937538 1.32975V6.67863C0.0937538 7.01769 0.191299 7.34292 0.352459 7.5505L15.6203 27.0016L0.352459 46.4527C0.187058 46.6603 0.0937538 46.9855 0.0937538 47.3246V52.6735C0.0937538 53.1371 0.420316 53.3931 0.640852 53.1094L19.7596 28.7454C19.9221 28.5386 20.0536 28.274 20.144 27.9719C20.2344 27.6697 20.2814 27.3379 20.2814 27.0016C20.2814 26.6654 20.2344 26.3335 20.144 26.0314C20.0536 25.7292 19.9221 25.4647 19.7596 25.2579Z" fill="#0B8175"/>
</svg>
