<?xml version="1.0" encoding="UTF-8"?>
<svg xmlns="http://www.w3.org/2000/svg" version="1.1" viewBox="0 0 800 800">
  <defs>
    <style>
      .cls-1 {
        fill: #fff;
      }
    </style>
  </defs>
  <!-- Generator: Adobe Illustrator 28.6.0, SVG Export Plug-In . SVG Version: 1.2.0 Build 709)  -->
  <g>
    <g id="_圖層_1" data-name="圖層_1">
      <path class="cls-1" d="M57.3,207.1c0-51.3,41.6-92.9,92.9-92.9h499.9c51.3,0,92.9,41.6,92.9,92.9v385.7c0,51.3-41.6,92.9-92.9,92.9h-236.5l-42.9-42.9h279.3c27.6,0,50-22.4,50-50V207.1c0-27.6-22.4-50-50-50H150.1c-27.6,0-50,22.4-50,50v156.6c-15.7,8.2-30.2,18.6-42.9,30.7v-187.3Z"/>
      <path class="cls-1" d="M332.1,414.3c-13.2-16.9-29.2-31.4-47.4-42.9h293.8c11.8,0,21.4,9.6,21.4,21.4s-9.6,21.4-21.4,21.4h-246.5Z"/>
      <path class="cls-1" d="M371.4,528.6h150c11.8,0,21.4-9.6,21.4-21.4s-9.6-21.4-21.4-21.4h-155c3.2,13.8,5,28.1,5,42.9Z"/>
      <path class="cls-1" d="M200,278.6c0-11.8,9.6-21.4,21.4-21.4h214.3c11.8,0,21.4,9.6,21.4,21.4s-9.6,21.4-21.4,21.4h-214.3c-11.8,0-21.4-9.6-21.4-21.4Z"/>
      <path class="cls-1" d="M311,623.5c20-26.4,31.9-59.3,31.9-94.9,0-86.8-70.4-157.1-157.1-157.1S28.6,441.8,28.6,528.6s70.4,157.1,157.1,157.1,68.6-11.9,94.9-31.9l82.8,82.8c8.4,8.4,21.9,8.4,30.3,0s8.4-21.9,0-30.3l-82.8-82.8ZM300,528.6c0,63.1-51.2,114.3-114.3,114.3s-114.3-51.2-114.3-114.3,51.2-114.3,114.3-114.3,114.3,51.2,114.3,114.3Z"/>
    </g>
  </g>
</svg>