<?xml version="1.0" encoding="UTF-8"?>
<svg xmlns="http://www.w3.org/2000/svg" version="1.1" viewBox="0 0 800 800">
  <defs>
    <style>
      .cls-1 {
        fill: #fff;
      }
    </style>
  </defs>
  <!-- Generator: Adobe Illustrator 28.6.0, SVG Export Plug-In . SVG Version: 1.2.0 Build 709)  -->
  <g>
    <g id="_圖層_1" data-name="圖層_1">
      <path class="cls-1" d="M183.3,141.7c0-13.8,11.2-25,25-25h191.7v150c0,36.8,29.8,66.7,66.7,66.7h150v325c0,13.8-11.2,25-25,25h-158.3v50h158.3c41.4,0,75-33.6,75-75v-336.2c0-15.5-6.1-30.3-17.1-41.2l-197.1-197.1c-10.9-10.9-25.8-17.1-41.2-17.1h-202.9c-41.4,0-75,33.6-75,75v258.3h50V141.7ZM450,266.7v-114.6l131.3,131.3h-114.6c-9.2,0-16.7-7.5-16.7-16.7Z"/>
      <path class="cls-1" d="M150,458.3c0,13.8-11.2,25-25,25h-41.7v233.3h41.7c13.8,0,25,11.2,25,25s-11.2,25-25,25h-41.7c-27.6,0-50-22.4-50-50v-233.3c0-27.6,22.4-50,50-50h41.7c13.8,0,25,11.2,25,25Z"/>
      <path class="cls-1" d="M308.3,483.3c-13.8,0-25-11.2-25-25s11.2-25,25-25h41.7c27.6,0,50,22.4,50,50v233.3c0,27.6-22.4,50-50,50h-41.7c-13.8,0-25-11.2-25-25s11.2-25,25-25h41.7v-233.3h-41.7Z"/>
      <path class="cls-1" d="M216.7,558.3c13.8,0,25,11.2,25,25v116.7c0,13.8-11.2,25-25,25s-25-11.2-25-25v-116.7c0-13.8,11.2-25,25-25Z"/>
      <path class="cls-1" d="M216.7,533.3c13.8,0,25-11.2,25-25s-11.2-25-25-25-25,11.2-25,25,11.2,25,25,25Z"/>
    </g>
  </g>
</svg>