<?xml version="1.0" encoding="UTF-8"?>
<svg xmlns="http://www.w3.org/2000/svg" version="1.1" viewBox="0 0 800 800">
  <defs>
    <style>
      .cls-1 {
        fill: #fff;
      }
    </style>
  </defs>
  <!-- Generator: Adobe Illustrator 28.6.0, SVG Export Plug-In . SVG Version: 1.2.0 Build 709)  -->
  <g>
    <g id="_圖層_1" data-name="圖層_1">
      <g id="_xD83D__xDD0D_-System-Icons">
        <g id="ic_fluent_dictionary_24_regular">
          <path id="_xD83C__xDFA8_-Color" class="cls-1" d="M600,66.7c46,0,83.3,37.3,83.3,83.3v475c0,13.8-11.2,25-25,25H183.3c0,18.4,14.9,33.3,33.3,33.3h441.7c13.8,0,25,11.2,25,25s-11.2,25-25,25H216.7c-46,0-83.3-37.3-83.3-83.3V150c0-46,37.3-83.3,83.3-83.3h383.3ZM600,116.7H216.7c-18.4,0-33.3,14.9-33.3,33.3v450h450V150c0-18.4-14.9-33.3-33.3-33.3ZM533.3,166.7c18.4,0,33.3,14.9,33.3,33.3v66.7c0,18.4-14.9,33.3-33.3,33.3h-266.7c-18.4,0-33.3-14.9-33.3-33.3v-66.7c0-18.4,14.9-33.3,33.3-33.3h266.7ZM516.7,216.7h-233.3v33.3h233.3v-33.3Z"/>
        </g>
      </g>
    </g>
  </g>
</svg>