<?xml version="1.0" encoding="UTF-8"?>
<svg xmlns="http://www.w3.org/2000/svg" version="1.1" viewBox="0 0 800 800">
  <defs>
    <style>
      .cls-1 {
        fill: #fff;
      }
    </style>
  </defs>
  <!-- Generator: Adobe Illustrator 28.6.0, SVG Export Plug-In . SVG Version: 1.2.0 Build 709)  -->
  <g>
    <g id="_圖層_1" data-name="圖層_1">
      <path class="cls-1" d="M208.3,116.7c-13.8,0-25,11.2-25,25v516.7c0,13.8,11.2,25,25,25h126c-3.6,18.3.3,35.8,9,50h-135c-41.4,0-75-33.6-75-75V141.7c0-41.4,33.6-75,75-75h202.9c15.5,0,30.3,6.1,41.2,17.1l197.1,197.1c10.9,10.9,17.1,25.8,17.1,41.2v11.2h-4.3c-3.7-.2-7.4-.2-11.1,0h-184.6c-36.8,0-66.7-29.8-66.7-66.7V116.7h-191.7ZM450,152v114.6c0,9.2,7.5,16.7,16.7,16.7h114.6l-131.3-131.3Z"/>
      <path class="cls-1" d="M657.1,366.7h0c19.5,0,39,7.4,53.8,22.3,29.8,29.8,29.8,78,0,107.7l-196.7,196.7c-11.5,11.5-25.8,19.6-41.6,23.5l-61,15.3c-26.5,6.6-50.6-17.4-43.9-43.9l15.3-61c3.9-15.7,12.1-30.1,23.5-41.6l196.7-196.7c14.9-14.9,34.4-22.3,53.8-22.3ZM675.7,424.3c-10.2-10.2-26.8-10.2-37,0l-196.7,196.7c-5.1,5.1-8.7,11.4-10.4,18.4l-9.7,38.8,38.8-9.7c6.9-1.7,13.3-5.3,18.4-10.4l196.7-196.7c10.2-10.2,10.2-26.8,0-37Z"/>
    </g>
  </g>
</svg>