<svg width="51" height="50" viewBox="0 0 51 50" fill="none" xmlns="http://www.w3.org/2000/svg">
<path d="M35.4318 15.4179V20.2893M35.4283 9.50718C35.3698 9.50718 35.3119 9.49561 35.258 9.47313C35.204 9.45065 35.155 9.41771 35.1138 9.37621C35.0727 9.3347 35.0401 9.28546 35.0181 9.23132C34.996 9.17718 34.9849 9.1192 34.9854 9.06075C34.9854 8.81075 35.1854 8.61432 35.4283 8.61432M35.4354 9.50718C35.5532 9.50623 35.6658 9.45878 35.7488 9.37516C35.8317 9.29154 35.8783 9.17853 35.8783 9.06075C35.8787 9.00229 35.8676 8.94432 35.8456 8.89018C35.8235 8.83603 35.791 8.78679 35.7498 8.74529C35.7087 8.70379 35.6597 8.67085 35.6057 8.64837C35.5517 8.62589 35.4939 8.61432 35.4354 8.61432M3.13184 45.9429H46.014M7.17469 24.3893C7.17469 25.2987 7.35381 26.1992 7.70183 27.0394C8.04984 27.8796 8.55993 28.643 9.20298 29.286C9.84602 29.9291 10.6094 30.4392 11.4496 30.7872C12.2898 31.1352 13.1903 31.3143 14.0997 31.3143C15.0091 31.3143 15.9096 31.1352 16.7498 30.7872C17.59 30.4392 18.3534 29.9291 18.9964 29.286C19.6395 28.643 20.1495 27.8796 20.4976 27.0394C20.8456 26.1992 21.0247 25.2987 21.0247 24.3893C21.0247 23.4799 20.8456 22.5794 20.4976 21.7392C20.1495 20.8991 19.6395 20.1357 18.9964 19.4926C18.3534 18.8496 17.59 18.3395 16.7498 17.9915C15.9096 17.6434 15.0091 17.4643 14.0997 17.4643C13.1903 17.4643 12.2898 17.6434 11.4496 17.9915C10.6094 18.3395 9.84602 18.8496 9.20298 19.4926C8.55993 20.1357 8.04984 20.8991 7.70183 21.7392C7.35381 22.5794 7.17469 23.4799 7.17469 24.3893Z" stroke="white" stroke-width="3.57143" stroke-linecap="round" stroke-linejoin="round"/>
<path d="M3.12451 45.9465V42.2893C3.12451 39.379 4.28061 36.588 6.33849 34.5301C8.39637 32.4722 11.1874 31.3161 14.0977 31.3161C17.008 31.3161 19.7991 32.4722 21.857 34.5301C23.9148 36.588 25.0709 39.379 25.0709 42.2893V45.9465M26.4781 23.9857C28.5535 26.0166 31.2624 27.2744 34.153 27.5495C37.0437 27.8245 39.9412 27.1002 42.3624 25.4972C44.7835 23.8943 46.5819 21.5096 47.4575 18.7411C48.333 15.9725 48.2329 12.9875 47.1737 10.2838C46.1146 7.58021 44.1604 5.32146 41.6373 3.88437C39.1142 2.44728 36.1746 1.91874 33.3089 2.38692C30.4432 2.85509 27.8246 4.29168 25.89 6.45704C23.9554 8.62239 22.8217 11.3856 22.6781 14.2857" stroke="white" stroke-width="3.57143" stroke-linecap="round" stroke-linejoin="round"/>
</svg>
