<?xml version="1.0" encoding="UTF-8"?>
<svg xmlns="http://www.w3.org/2000/svg" version="1.1" viewBox="0 0 800 800">
  <defs>
    <style>
      .cls-1 {
        fill: #fff;
      }
    </style>
  </defs>
  <!-- Generator: Adobe Illustrator 28.6.0, SVG Export Plug-In . SVG Version: 1.2.0 Build 709)  -->
  <g>
    <g id="_圖層_1" data-name="圖層_1">
      <g id="_xD83D__xDD0D_-System-Icons">
        <g id="ic_fluent_clipboard_search_24_regular">
          <path id="_xD83C__xDFA8_-Color" class="cls-1" d="M458.3,66.7c36.8,0,67.3,26.4,73.8,61.4l.8,5.3h58.8c39.7,0,72.2,30.9,74.8,69.9l.2,5.1v450c0,39.7-30.8,72.2-69.9,74.8l-5.1.2h-130.6c6.7-14,7.4-30.2,2.2-44.6l-2.2-5.4h130.6c12.7,0,23.1-9.4,24.8-21.6l.2-3.4V208.3c0-12.7-9.4-23.1-21.6-24.8l-3.4-.2h-71c-12.4,18.6-32.9,31.3-56.4,33.1l-5.9.2h-116.7c-24,0-45.4-11.3-59.1-28.8l-3.3-4.5h-71c-12.7,0-23.1,9.4-24.8,21.6l-.2,3.4v111.4c-14.1,2.6-27.7,6.8-40.5,12.5l-9.5,4.5v-128.3c0-39.7,30.8-72.2,69.9-74.8l5.1-.2h58.8c4-35.7,33-63.9,69.1-66.5l5.5-.2h116.7ZM216.7,350c82.8,0,150,67.2,150,150s-11.2,65.1-30.1,90.2l-4.9,6.1,94.3,94.3c9.8,9.8,9.8,25.6,0,35.4-8.9,8.9-22.8,9.7-32.5,2.4l-2.8-2.4-97.2-97.2c-22.5,13.4-48.8,21.1-76.8,21.1-82.8,0-150-67.2-150-150s67.2-150,150-150ZM216.7,400c-55.2,0-100,44.8-100,100s44.8,100,100,100,100-44.8,100-100-44.8-100-100-100ZM458.3,116.7h-116.7c-13.8,0-25,11.2-25,25s9.4,23.1,21.6,24.8l3.4.2h116.7c13.8,0,25-11.2,25-25s-9.4-23.1-21.6-24.8l-3.4-.2Z"/>
        </g>
      </g>
    </g>
  </g>
</svg>